<svg xmlns="http://www.w3.org/2000/svg" width="800" height="800" fill="none" viewBox="0 0 24 24">
<path fill="currentColor" fill-rule="evenodd" d="M23.11 4.5a2 2 0 0 0-2.68-2.27L2.34 9.22a2 2 0 0 0-.11 3.68l3.93 1.82 1.88 6.55a1 1 0 0 0 1.67.44l2.88-2.89 4.05 3.03a2 2 0 0 0 3.16-1.2L23.1 4.5ZM3.06 11.07l18.1-6.99-3.32 16.16-4.74-3.55a1 1 0 0 0-1.3.1l-1.24 1.23.37-2.04L18.2 8.7A1 1 0 0 0 17 7.13L6.94 12.88l-3.89-1.8Zm5.12 3.4.6 2.12.24-1.28a1 1 0 0 1 .27-.53l2.22-2.22-3.33 1.9Z" clip-rule="evenodd"/>
</svg>