<svg xmlns="http://www.w3.org/2000/svg" version="1.1" xmlns:xlink="http://www.w3.org/1999/xlink" xmlns:svgjs="http://svgjs.dev/svgjs" width="1000" height="1000"><style>
    #light-icon {
      display: inline;
    }
    #dark-icon {
      display: none;
    }

    @media (prefers-color-scheme: dark) {
      #light-icon {
        display: none;
      }
      #dark-icon {
        display: inline;
      }
    }
  </style><g id="light-icon"><svg xmlns="http://www.w3.org/2000/svg" version="1.1" xmlns:xlink="http://www.w3.org/1999/xlink" xmlns:svgjs="http://svgjs.dev/svgjs" width="1000" height="1000"><g clip-path="url(#SvgjsClipPath1503)"><rect width="1000" height="1000" fill="#ffffff"></rect><g transform="matrix(1.5197568389057752,0,0,1.5197568389057752,-5.684341886080802e-14,1.519756838905721)"><svg xmlns="http://www.w3.org/2000/svg" version="1.1" xmlns:xlink="http://www.w3.org/1999/xlink" xmlns:svgjs="http://svgjs.dev/svgjs" width="658" height="656"><svg width="658" height="656" viewBox="0 0 658 656" fill="none" xmlns="http://www.w3.org/2000/svg">
<path d="M338.4 386.999C323.8 381.699 318 370.199 314.7 356.699C314.3 354.699 313.9 352.699 313.7 350.699C312.8 341.699 312.8 341.599 303.8 340.499C299.7 340.099 295.6 339.099 291.4 339.299C287.1 339.599 285 336.999 284.7 332.999C284.1 323.399 285.4 313.999 285.8 304.499C286 301.499 287.9 299.399 290.6 297.899C294.7 295.599 299.2 294.299 303.8 293.799C314.6 292.399 317.5 289.499 317.6 278.499V224.099C317.6 222.199 317.6 220.299 317.9 218.599C318.9 213.299 321.9 209.599 327.1 207.699C338.7 203.399 350.2 199.199 362.1 195.799C369.7 193.599 371.5 190.799 371.6 182.799C371.8 173.299 370 163.999 369.2 154.599C368.2 143.299 366.9 132.099 365.6 120.899C365 115.099 364.5 109.299 363.6 103.599C362.8 98.9995 359.4 97.0994 355 98.8994C350.7 100.699 346.6 102.899 342.5 105.199L291.7 134.199L288.2 136.199C283.4 138.499 281.2 137.499 280.9 132.199C280.6 125.099 280.7 117.899 280.9 110.699C281 105.699 284.5 102.699 288.2 99.8994C305.2 86.7994 323.5 75.4994 341.6 63.8994L364.9 49.3994C376.9 41.9994 389.8 40.5995 403.7 42.9995C426 46.7995 448.4 49.4995 470.7 52.6995C489.5 55.2995 508.2 58.0994 526.9 60.3994C541.9 62.1994 556.9 64.3995 571.8 66.4995C579.896 67.4015 587.618 70.392 594.21 75.178C600.801 79.9639 606.036 86.3808 609.4 93.7994C624.4 124.399 637.4 155.999 646.4 188.999C648.7 197.999 651.4 206.899 654.1 215.799C655.753 221.208 656.53 226.846 656.4 232.499C655.8 256.499 657 280.499 657.3 304.499C657.773 313.12 656.55 321.75 653.7 329.899C651.544 335.915 647.822 341.246 642.917 345.342C638.013 349.438 632.104 352.15 625.8 353.199C621.6 353.999 619.4 355.899 617.5 359.799C610.1 375.199 598.5 384.199 580.5 383.399C576.5 383.199 572.5 383.199 568.5 383.399C558.3 383.899 551.5 378.899 546.6 370.399C543.999 365.761 542.175 360.728 541.2 355.499C540.6 352.599 539.2 351.099 536.2 350.899L519.9 349.399C489.7 347.499 459.5 345.799 429.3 343.799C425.3 343.599 423.5 345.099 422.1 348.399C418.7 356.399 415.1 364.199 410.1 371.399C406.535 376.851 401.693 381.349 395.994 384.504C390.296 387.658 383.913 389.373 377.4 389.499C364.4 389.999 351.4 390.499 338.4 386.999ZM609 150.299C605.6 141.299 602.5 132.099 599 123.199C595.9 115.499 590.7 109.999 581.8 109.099C574.4 108.399 566.9 107.799 559.5 106.699C543.72 104.483 527.881 102.716 512 101.399C497.627 100.306 483.288 98.805 469 96.8994C451.2 94.3994 433.5 91.5995 415.7 89.4995C402.3 87.8995 398.4 92.1994 399.4 105.799C399.4 106.699 399.7 107.499 399.7 108.299L403.4 140.999C404.7 153.199 405.9 165.399 407.6 177.499C408.199 181.529 410.078 185.26 412.959 188.141C415.84 191.022 419.57 192.9 423.6 193.499C431 194.399 438.4 194.899 445.9 195.699L488.9 200.299L538.4 205.699L579.4 210.299C592.4 211.699 605.2 213.399 618.1 214.599C625.5 215.199 628.4 211.799 627.6 204.399C627.4 202.599 626.8 200.799 626.2 199.099L609 150.299ZM365.5 351.999C371.3 337.599 372.5 322.599 371.5 307.399C371.21 302.224 369.991 297.143 367.9 292.399C363.5 282.399 355.4 280.199 346.4 286.399C342.453 289.217 339.175 292.871 336.8 297.099C328.675 311.957 325.455 329.002 327.6 345.799C327.94 351.141 329.298 356.368 331.6 361.199C337.1 372.399 348 374.299 357 365.699C360.8 362.099 363 357.299 365.5 351.999ZM461.5 262.999L460.4 258.199C456.8 245.999 443.1 236.599 432.4 238.899C428.53 239.704 424.9 241.401 421.801 243.855C418.702 246.31 416.218 249.454 414.548 253.037C412.878 256.62 412.067 260.544 412.18 264.495C412.294 268.447 413.328 272.318 415.2 275.799C421.4 287.699 432.9 292.999 444.5 289.399C454.6 286.299 461.5 275.799 461.5 262.999ZM632.5 286.899C633.9 282.299 633.7 277.799 632.6 273.099C630.2 263.499 621.5 255.499 612.8 255.399C603.4 255.299 596 261.599 593.2 272.099L592.7 273.499C591.655 279.098 592.552 284.885 595.243 289.904C597.934 294.923 602.259 298.873 607.5 301.099C617.8 304.599 627.3 299.499 632.5 286.899Z" fill="#000"></path>
<path d="M40.5 157.499C78.5 107.499 116.5 57.9992 154.3 8.29922C155.809 6.22029 157.796 4.5352 160.094 3.38641C162.391 2.23763 164.932 1.65892 167.5 1.69922L249.5 0.699219C252.3 0.699219 255.2 1.19922 257.9 1.89922C263.5 3.29922 266.3 7.79922 266.3 14.8992V194.899C266.7 204.199 271.2 208.599 280.5 208.599H289C296.9 208.799 302.2 213.399 302.1 221.299C302.1 238.899 302.6 256.599 301.3 274.299C300.9 279.599 296.1 283.799 289.9 284.299C285.3 284.799 280.6 284.899 275.9 285.299C269.8 285.699 266.4 288.799 266.2 294.999C265.9 306.699 266 318.399 266 329.999C266 343.499 262.2 347.299 248.8 347.299H193.8C184.6 347.299 180.7 343.399 180.6 334.299C180.6 322.299 180.7 310.299 179.8 298.299C179.3 290.599 174.8 285.699 167.1 285.299C163.4 284.999 159.7 285.299 156.1 285.299H15C4.8 285.299 0.6 281.099 0.5 270.699V217.199C0.5 211.999 2.1 207.599 5.3 203.499C17 188.299 28.5 172.999 40.3 157.499M155.2 129.699L105.6 197.299C103.9 199.599 101.2 201.799 103 205.299C104.8 208.599 108 208.699 111.2 208.699H167.6C176.2 208.699 179.5 205.699 179.6 197.099V109.699C179.6 107.499 179.5 104.999 177.2 104.099C174.7 103.199 173.2 105.399 172 107.099L155.2 129.699ZM629 547.699C624.733 561.751 616.429 574.238 605.121 583.608C593.813 592.978 580 598.817 565.4 600.399C553.922 602.651 542.084 602.292 530.763 599.349C519.443 596.406 508.929 590.955 500 583.399C498.8 582.299 497.5 580.699 495.7 581.699C494 582.699 494.4 584.699 494.4 586.299V643.699C494.4 652.699 491.7 655.299 482.8 655.299H448.3C440.7 655.299 438.1 652.999 437.2 645.599C436.8 642.399 436.9 639.299 436.9 636.099V440.699C436.9 434.799 437.4 428.999 437.6 423.199C437.7 419.799 439.4 417.699 442.6 416.599C445.8 415.599 448.9 415.599 452.1 415.599H482.1C491.1 415.599 494 418.499 494.3 427.499C494.3 429.099 493.9 430.899 495.4 432.199C497.8 432.699 498.9 430.699 500.4 429.399C515.074 416.709 533.763 409.617 553.162 409.379C572.561 409.141 591.419 415.772 606.4 428.099C621.2 440.299 628.1 456.899 632 474.899C637.257 499.022 636.224 524.091 629 547.699ZM526.6 455.199C518.855 456.634 511.637 460.122 505.7 465.299C501.91 468.208 498.883 471.994 496.88 476.331C494.877 480.669 493.957 485.428 494.2 490.199C494.6 501.999 494.3 513.799 494.4 525.699C494.4 531.999 496.1 537.899 500.4 542.699C505.529 549.338 512.467 554.352 520.381 557.138C528.294 559.924 536.844 560.362 545 558.399C552.658 556.841 559.703 553.107 565.291 547.643C570.878 542.18 574.771 535.22 576.5 527.599C580.1 514.599 580.1 501.499 577.4 488.499C576.332 482.935 574.157 477.643 571.005 472.936C567.852 468.229 563.786 464.203 559.048 461.097C554.31 457.991 548.997 455.868 543.423 454.855C537.849 453.842 532.128 453.959 526.6 455.199ZM78.4 570.299C74.4027 560.461 72.4301 549.917 72.6 539.299V467.299C72.6 461.299 71.8 460.299 65.8 460.299H49.3C41.3 460.199 38.2 457.699 37.8 449.699C37.45 440.903 37.45 432.096 37.8 423.299C37.8 418.299 40.8 415.799 45.8 415.699C52.6 415.599 59.5 415.399 66.3 415.699C71.1 415.899 72.9 414.099 72.9 409.399C72.9 399.399 73.4 389.399 73.6 379.399C73.8 373.599 75.9 370.999 81.6 370.799C93.6 370.599 105.6 370.599 117.6 370.799C122.8 370.899 125.3 373.899 125.3 379.399C125.3 389.599 125.7 399.699 126 409.899C126.2 414.099 127.6 415.799 132 415.699C142.4 415.499 153 415.699 163.4 415.699C170.7 415.699 172.2 417.299 172.4 424.399C172.7 433.499 173.1 442.699 172.4 451.799C172 457.399 170.4 459.299 164.8 459.299C154 459.399 143.1 459.499 132.3 459.299C128 459.299 126.2 460.299 126.3 465.299C126.5 488.699 126.3 512.199 126.3 535.699C126.3 548.699 132.9 555.199 146 555.699C152 555.899 158 555.099 163.8 554.299C169.2 553.699 173.1 556.699 173.3 562.099C173.5 570.599 173.4 579.099 173.3 587.599C173.2 591.599 170.9 594.299 166.8 595.399C161.005 596.841 155.07 597.646 149.1 597.799C133.1 598.799 116.8 600.099 101.4 593.399C91.0535 588.986 82.8128 580.746 78.4 570.399V570.299ZM323.9 415.199C325.575 417.291 326.428 419.923 326.3 422.599L326.2 452.599C326.2 462.099 322 465.199 312.6 463.799C290.2 460.499 268.1 470.799 259.6 488.299C255.8 496.099 255.6 504.499 255.6 512.699C255.3 536.899 255.4 560.999 255.3 585.199C255.3 592.999 253.3 595.599 245.6 595.899C233.269 596.264 220.931 596.264 208.6 595.899C201 595.799 198.6 592.899 198.6 585.299V426.899C198.6 418.499 201.3 415.799 209.6 415.699H243.6C252.1 415.699 254.3 417.999 255.1 426.699C255.5 430.499 254.3 434.599 256.3 438.299C259.5 438.299 260.8 435.899 262.3 434.099C268.578 426.591 276.518 420.648 285.492 416.743C294.466 412.837 304.227 411.076 314 411.599C317.7 411.699 321 412.399 323.9 415.199ZM379 415.699C385.5 415.699 391.5 415.499 397.5 415.699C403.7 415.899 406.3 418.699 406.3 424.699V587.099C406.3 592.899 404.5 595.099 398.7 595.499C385.58 596.324 372.42 596.324 359.3 595.499C354.3 595.199 351.8 592.399 351.6 587.499C350.7 567.399 351 547.199 351.2 527.099C351.5 504.999 351.6 482.799 351.4 460.699C351.3 448.199 351.4 435.699 351.7 423.299C351.8 418.399 354.8 415.999 361 415.699C366.8 415.499 372.7 415.699 379 415.699ZM339.8 327.399C341 320.599 342.1 314.199 345.9 308.699C348.4 305.099 351.5 302.199 356.1 302.899C360.9 303.499 362.6 307.399 363.4 311.799C365.58 322.238 364.498 333.096 360.3 342.899C359.334 345.013 358.052 346.969 356.5 348.699C351.1 354.999 343.9 353.499 341.2 345.599C339.2 339.799 339.7 333.799 339.8 327.399Z" fill="#000"></path>
</svg></svg></g></g><defs><clipPath id="SvgjsClipPath1503"><rect width="1000" height="1000" x="0" y="0" rx="0" ry="0"></rect></clipPath></defs></svg></g><g id="dark-icon"><svg xmlns="http://www.w3.org/2000/svg" version="1.1" xmlns:xlink="http://www.w3.org/1999/xlink" xmlns:svgjs="http://svgjs.dev/svgjs" width="1000" height="1000"><g clip-path="url(#SvgjsClipPath1504)"><rect width="1000" height="1000" fill="#000000"></rect><g transform="matrix(1.5197568389057752,0,0,1.5197568389057752,-5.684341886080802e-14,1.519756838905721)"><svg xmlns="http://www.w3.org/2000/svg" version="1.1" xmlns:xlink="http://www.w3.org/1999/xlink" xmlns:svgjs="http://svgjs.dev/svgjs" width="658" height="656"><svg width="658" height="656" viewBox="0 0 658 656" fill="none" xmlns="http://www.w3.org/2000/svg">
<path d="M338.4 386.999C323.8 381.699 318 370.199 314.7 356.699C314.3 354.699 313.9 352.699 313.7 350.699C312.8 341.699 312.8 341.599 303.8 340.499C299.7 340.099 295.6 339.099 291.4 339.299C287.1 339.599 285 336.999 284.7 332.999C284.1 323.399 285.4 313.999 285.8 304.499C286 301.499 287.9 299.399 290.6 297.899C294.7 295.599 299.2 294.299 303.8 293.799C314.6 292.399 317.5 289.499 317.6 278.499V224.099C317.6 222.199 317.6 220.299 317.9 218.599C318.9 213.299 321.9 209.599 327.1 207.699C338.7 203.399 350.2 199.199 362.1 195.799C369.7 193.599 371.5 190.799 371.6 182.799C371.8 173.299 370 163.999 369.2 154.599C368.2 143.299 366.9 132.099 365.6 120.899C365 115.099 364.5 109.299 363.6 103.599C362.8 98.9995 359.4 97.0994 355 98.8994C350.7 100.699 346.6 102.899 342.5 105.199L291.7 134.199L288.2 136.199C283.4 138.499 281.2 137.499 280.9 132.199C280.6 125.099 280.7 117.899 280.9 110.699C281 105.699 284.5 102.699 288.2 99.8994C305.2 86.7994 323.5 75.4994 341.6 63.8994L364.9 49.3994C376.9 41.9994 389.8 40.5995 403.7 42.9995C426 46.7995 448.4 49.4995 470.7 52.6995C489.5 55.2995 508.2 58.0994 526.9 60.3994C541.9 62.1994 556.9 64.3995 571.8 66.4995C579.896 67.4015 587.618 70.392 594.21 75.178C600.801 79.9639 606.036 86.3808 609.4 93.7994C624.4 124.399 637.4 155.999 646.4 188.999C648.7 197.999 651.4 206.899 654.1 215.799C655.753 221.208 656.53 226.846 656.4 232.499C655.8 256.499 657 280.499 657.3 304.499C657.773 313.12 656.55 321.75 653.7 329.899C651.544 335.915 647.822 341.246 642.917 345.342C638.013 349.438 632.104 352.15 625.8 353.199C621.6 353.999 619.4 355.899 617.5 359.799C610.1 375.199 598.5 384.199 580.5 383.399C576.5 383.199 572.5 383.199 568.5 383.399C558.3 383.899 551.5 378.899 546.6 370.399C543.999 365.761 542.175 360.728 541.2 355.499C540.6 352.599 539.2 351.099 536.2 350.899L519.9 349.399C489.7 347.499 459.5 345.799 429.3 343.799C425.3 343.599 423.5 345.099 422.1 348.399C418.7 356.399 415.1 364.199 410.1 371.399C406.535 376.851 401.693 381.349 395.994 384.504C390.296 387.658 383.913 389.373 377.4 389.499C364.4 389.999 351.4 390.499 338.4 386.999ZM609 150.299C605.6 141.299 602.5 132.099 599 123.199C595.9 115.499 590.7 109.999 581.8 109.099C574.4 108.399 566.9 107.799 559.5 106.699C543.72 104.483 527.881 102.716 512 101.399C497.627 100.306 483.288 98.805 469 96.8994C451.2 94.3994 433.5 91.5995 415.7 89.4995C402.3 87.8995 398.4 92.1994 399.4 105.799C399.4 106.699 399.7 107.499 399.7 108.299L403.4 140.999C404.7 153.199 405.9 165.399 407.6 177.499C408.199 181.529 410.078 185.26 412.959 188.141C415.84 191.022 419.57 192.9 423.6 193.499C431 194.399 438.4 194.899 445.9 195.699L488.9 200.299L538.4 205.699L579.4 210.299C592.4 211.699 605.2 213.399 618.1 214.599C625.5 215.199 628.4 211.799 627.6 204.399C627.4 202.599 626.8 200.799 626.2 199.099L609 150.299ZM365.5 351.999C371.3 337.599 372.5 322.599 371.5 307.399C371.21 302.224 369.991 297.143 367.9 292.399C363.5 282.399 355.4 280.199 346.4 286.399C342.453 289.217 339.175 292.871 336.8 297.099C328.675 311.957 325.455 329.002 327.6 345.799C327.94 351.141 329.298 356.368 331.6 361.199C337.1 372.399 348 374.299 357 365.699C360.8 362.099 363 357.299 365.5 351.999ZM461.5 262.999L460.4 258.199C456.8 245.999 443.1 236.599 432.4 238.899C428.53 239.704 424.9 241.401 421.801 243.855C418.702 246.31 416.218 249.454 414.548 253.037C412.878 256.62 412.067 260.544 412.18 264.495C412.294 268.447 413.328 272.318 415.2 275.799C421.4 287.699 432.9 292.999 444.5 289.399C454.6 286.299 461.5 275.799 461.5 262.999ZM632.5 286.899C633.9 282.299 633.7 277.799 632.6 273.099C630.2 263.499 621.5 255.499 612.8 255.399C603.4 255.299 596 261.599 593.2 272.099L592.7 273.499C591.655 279.098 592.552 284.885 595.243 289.904C597.934 294.923 602.259 298.873 607.5 301.099C617.8 304.599 627.3 299.499 632.5 286.899Z" fill="#fff"></path>
<path d="M40.5 157.499C78.5 107.499 116.5 57.9992 154.3 8.29922C155.809 6.22029 157.796 4.5352 160.094 3.38641C162.391 2.23763 164.932 1.65892 167.5 1.69922L249.5 0.699219C252.3 0.699219 255.2 1.19922 257.9 1.89922C263.5 3.29922 266.3 7.79922 266.3 14.8992V194.899C266.7 204.199 271.2 208.599 280.5 208.599H289C296.9 208.799 302.2 213.399 302.1 221.299C302.1 238.899 302.6 256.599 301.3 274.299C300.9 279.599 296.1 283.799 289.9 284.299C285.3 284.799 280.6 284.899 275.9 285.299C269.8 285.699 266.4 288.799 266.2 294.999C265.9 306.699 266 318.399 266 329.999C266 343.499 262.2 347.299 248.8 347.299H193.8C184.6 347.299 180.7 343.399 180.6 334.299C180.6 322.299 180.7 310.299 179.8 298.299C179.3 290.599 174.8 285.699 167.1 285.299C163.4 284.999 159.7 285.299 156.1 285.299H15C4.8 285.299 0.6 281.099 0.5 270.699V217.199C0.5 211.999 2.1 207.599 5.3 203.499C17 188.299 28.5 172.999 40.3 157.499M155.2 129.699L105.6 197.299C103.9 199.599 101.2 201.799 103 205.299C104.8 208.599 108 208.699 111.2 208.699H167.6C176.2 208.699 179.5 205.699 179.6 197.099V109.699C179.6 107.499 179.5 104.999 177.2 104.099C174.7 103.199 173.2 105.399 172 107.099L155.2 129.699ZM629 547.699C624.733 561.751 616.429 574.238 605.121 583.608C593.813 592.978 580 598.817 565.4 600.399C553.922 602.651 542.084 602.292 530.763 599.349C519.443 596.406 508.929 590.955 500 583.399C498.8 582.299 497.5 580.699 495.7 581.699C494 582.699 494.4 584.699 494.4 586.299V643.699C494.4 652.699 491.7 655.299 482.8 655.299H448.3C440.7 655.299 438.1 652.999 437.2 645.599C436.8 642.399 436.9 639.299 436.9 636.099V440.699C436.9 434.799 437.4 428.999 437.6 423.199C437.7 419.799 439.4 417.699 442.6 416.599C445.8 415.599 448.9 415.599 452.1 415.599H482.1C491.1 415.599 494 418.499 494.3 427.499C494.3 429.099 493.9 430.899 495.4 432.199C497.8 432.699 498.9 430.699 500.4 429.399C515.074 416.709 533.763 409.617 553.162 409.379C572.561 409.141 591.419 415.772 606.4 428.099C621.2 440.299 628.1 456.899 632 474.899C637.257 499.022 636.224 524.091 629 547.699ZM526.6 455.199C518.855 456.634 511.637 460.122 505.7 465.299C501.91 468.208 498.883 471.994 496.88 476.331C494.877 480.669 493.957 485.428 494.2 490.199C494.6 501.999 494.3 513.799 494.4 525.699C494.4 531.999 496.1 537.899 500.4 542.699C505.529 549.338 512.467 554.352 520.381 557.138C528.294 559.924 536.844 560.362 545 558.399C552.658 556.841 559.703 553.107 565.291 547.643C570.878 542.18 574.771 535.22 576.5 527.599C580.1 514.599 580.1 501.499 577.4 488.499C576.332 482.935 574.157 477.643 571.005 472.936C567.852 468.229 563.786 464.203 559.048 461.097C554.31 457.991 548.997 455.868 543.423 454.855C537.849 453.842 532.128 453.959 526.6 455.199ZM78.4 570.299C74.4027 560.461 72.4301 549.917 72.6 539.299V467.299C72.6 461.299 71.8 460.299 65.8 460.299H49.3C41.3 460.199 38.2 457.699 37.8 449.699C37.45 440.903 37.45 432.096 37.8 423.299C37.8 418.299 40.8 415.799 45.8 415.699C52.6 415.599 59.5 415.399 66.3 415.699C71.1 415.899 72.9 414.099 72.9 409.399C72.9 399.399 73.4 389.399 73.6 379.399C73.8 373.599 75.9 370.999 81.6 370.799C93.6 370.599 105.6 370.599 117.6 370.799C122.8 370.899 125.3 373.899 125.3 379.399C125.3 389.599 125.7 399.699 126 409.899C126.2 414.099 127.6 415.799 132 415.699C142.4 415.499 153 415.699 163.4 415.699C170.7 415.699 172.2 417.299 172.4 424.399C172.7 433.499 173.1 442.699 172.4 451.799C172 457.399 170.4 459.299 164.8 459.299C154 459.399 143.1 459.499 132.3 459.299C128 459.299 126.2 460.299 126.3 465.299C126.5 488.699 126.3 512.199 126.3 535.699C126.3 548.699 132.9 555.199 146 555.699C152 555.899 158 555.099 163.8 554.299C169.2 553.699 173.1 556.699 173.3 562.099C173.5 570.599 173.4 579.099 173.3 587.599C173.2 591.599 170.9 594.299 166.8 595.399C161.005 596.841 155.07 597.646 149.1 597.799C133.1 598.799 116.8 600.099 101.4 593.399C91.0535 588.986 82.8128 580.746 78.4 570.399V570.299ZM323.9 415.199C325.575 417.291 326.428 419.923 326.3 422.599L326.2 452.599C326.2 462.099 322 465.199 312.6 463.799C290.2 460.499 268.1 470.799 259.6 488.299C255.8 496.099 255.6 504.499 255.6 512.699C255.3 536.899 255.4 560.999 255.3 585.199C255.3 592.999 253.3 595.599 245.6 595.899C233.269 596.264 220.931 596.264 208.6 595.899C201 595.799 198.6 592.899 198.6 585.299V426.899C198.6 418.499 201.3 415.799 209.6 415.699H243.6C252.1 415.699 254.3 417.999 255.1 426.699C255.5 430.499 254.3 434.599 256.3 438.299C259.5 438.299 260.8 435.899 262.3 434.099C268.578 426.591 276.518 420.648 285.492 416.743C294.466 412.837 304.227 411.076 314 411.599C317.7 411.699 321 412.399 323.9 415.199ZM379 415.699C385.5 415.699 391.5 415.499 397.5 415.699C403.7 415.899 406.3 418.699 406.3 424.699V587.099C406.3 592.899 404.5 595.099 398.7 595.499C385.58 596.324 372.42 596.324 359.3 595.499C354.3 595.199 351.8 592.399 351.6 587.499C350.7 567.399 351 547.199 351.2 527.099C351.5 504.999 351.6 482.799 351.4 460.699C351.3 448.199 351.4 435.699 351.7 423.299C351.8 418.399 354.8 415.999 361 415.699C366.8 415.499 372.7 415.699 379 415.699ZM339.8 327.399C341 320.599 342.1 314.199 345.9 308.699C348.4 305.099 351.5 302.199 356.1 302.899C360.9 303.499 362.6 307.399 363.4 311.799C365.58 322.238 364.498 333.096 360.3 342.899C359.334 345.013 358.052 346.969 356.5 348.699C351.1 354.999 343.9 353.499 341.2 345.599C339.2 339.799 339.7 333.799 339.8 327.399Z" fill="#fff"></path>
</svg></svg></g></g><defs><clipPath id="SvgjsClipPath1504"><rect width="1000" height="1000" x="0" y="0" rx="0" ry="0"></rect></clipPath></defs></svg></g></svg>